<mxfile host="app.diagrams.net" agent="Mozilla/5.0 (Windows NT 10.0; Win64; x64) AppleWebKit/537.36 (KHTML, like Gecko) Chrome/136.0.0.0 Safari/537.36" version="27.0.5">
  <diagram id="Q3BxNoMyumit2uouhlmU" name="Page-1">
    <mxGraphModel dx="3254" dy="1915" grid="1" gridSize="10" guides="1" tooltips="1" connect="1" arrows="1" fold="1" page="1" pageScale="1" pageWidth="850" pageHeight="1100" math="0" shadow="0">
      <root>
        <mxCell id="0" />
        <mxCell id="1" parent="0" />
        <mxCell id="mNRcXlZDiST3ZI14vxhJ-84" style="edgeStyle=orthogonalEdgeStyle;rounded=0;orthogonalLoop=1;jettySize=auto;html=1;exitX=0.5;exitY=1;exitDx=0;exitDy=0;entryX=0;entryY=0.5;entryDx=0;entryDy=0;" parent="1" source="qfDfbS4rxaPd7jS4ZdNi-1" target="qfDfbS4rxaPd7jS4ZdNi-3" edge="1">
          <mxGeometry relative="1" as="geometry" />
        </mxCell>
        <mxCell id="mNRcXlZDiST3ZI14vxhJ-104" style="edgeStyle=orthogonalEdgeStyle;rounded=0;orthogonalLoop=1;jettySize=auto;html=1;exitX=0.5;exitY=1;exitDx=0;exitDy=0;entryX=0.5;entryY=0;entryDx=0;entryDy=0;" parent="1" source="qfDfbS4rxaPd7jS4ZdNi-1" target="mNRcXlZDiST3ZI14vxhJ-103" edge="1">
          <mxGeometry relative="1" as="geometry" />
        </mxCell>
        <mxCell id="qfDfbS4rxaPd7jS4ZdNi-1" value="Mathematical Functions" style="rounded=0;whiteSpace=wrap;html=1;glass=0;labelBackgroundColor=none;" parent="1" vertex="1">
          <mxGeometry x="-480" y="-40" width="170" height="70" as="geometry" />
        </mxCell>
        <mxCell id="mNRcXlZDiST3ZI14vxhJ-93" style="edgeStyle=orthogonalEdgeStyle;rounded=0;orthogonalLoop=1;jettySize=auto;html=1;exitX=0.5;exitY=1;exitDx=0;exitDy=0;" parent="1" source="qfDfbS4rxaPd7jS4ZdNi-3" edge="1">
          <mxGeometry relative="1" as="geometry">
            <mxPoint x="-164.47058823529414" y="270" as="targetPoint" />
          </mxGeometry>
        </mxCell>
        <mxCell id="qfDfbS4rxaPd7jS4ZdNi-3" value="Current State of Calculator" style="rounded=0;whiteSpace=wrap;html=1;glass=0;labelBackgroundColor=none;" parent="1" vertex="1">
          <mxGeometry x="-245" y="140" width="160" height="70" as="geometry" />
        </mxCell>
        <mxCell id="qfDfbS4rxaPd7jS4ZdNi-5" value="Common Constants" style="rounded=0;whiteSpace=wrap;html=1;glass=0;labelBackgroundColor=none;" parent="1" vertex="1">
          <mxGeometry x="-940" y="-40" width="160" height="70" as="geometry" />
        </mxCell>
        <mxCell id="mNRcXlZDiST3ZI14vxhJ-26" style="edgeStyle=orthogonalEdgeStyle;rounded=0;orthogonalLoop=1;jettySize=auto;html=1;exitX=0.5;exitY=1;exitDx=0;exitDy=0;entryX=0.5;entryY=0;entryDx=0;entryDy=0;labelBackgroundColor=none;fontColor=default;" parent="1" source="qfDfbS4rxaPd7jS4ZdNi-8" target="mNRcXlZDiST3ZI14vxhJ-18" edge="1">
          <mxGeometry relative="1" as="geometry" />
        </mxCell>
        <mxCell id="mNRcXlZDiST3ZI14vxhJ-54" style="edgeStyle=orthogonalEdgeStyle;rounded=0;orthogonalLoop=1;jettySize=auto;html=1;exitX=1;exitY=0.5;exitDx=0;exitDy=0;entryX=0.5;entryY=0;entryDx=0;entryDy=0;" parent="1" source="qfDfbS4rxaPd7jS4ZdNi-8" target="qfDfbS4rxaPd7jS4ZdNi-9" edge="1">
          <mxGeometry relative="1" as="geometry" />
        </mxCell>
        <mxCell id="qfDfbS4rxaPd7jS4ZdNi-8" value="Rendering" style="rounded=0;whiteSpace=wrap;html=1;labelBackgroundColor=none;" parent="1" vertex="1">
          <mxGeometry x="210" y="-40" width="140" height="70" as="geometry" />
        </mxCell>
        <mxCell id="mNRcXlZDiST3ZI14vxhJ-9" style="edgeStyle=orthogonalEdgeStyle;rounded=0;orthogonalLoop=1;jettySize=auto;html=1;exitX=0.5;exitY=1;exitDx=0;exitDy=0;labelBackgroundColor=none;fontColor=default;" parent="1" source="qfDfbS4rxaPd7jS4ZdNi-9" edge="1">
          <mxGeometry relative="1" as="geometry">
            <mxPoint x="510" y="180" as="targetPoint" />
          </mxGeometry>
        </mxCell>
        <mxCell id="qfDfbS4rxaPd7jS4ZdNi-9" value="Shift Bit Register" style="rounded=0;whiteSpace=wrap;html=1;labelBackgroundColor=none;" parent="1" vertex="1">
          <mxGeometry x="440" y="70" width="140" height="70" as="geometry" />
        </mxCell>
        <mxCell id="mNRcXlZDiST3ZI14vxhJ-10" value="SPI Driver" style="rounded=0;whiteSpace=wrap;html=1;labelBackgroundColor=none;" parent="1" vertex="1">
          <mxGeometry x="440" y="180" width="145" height="60" as="geometry" />
        </mxCell>
        <mxCell id="mNRcXlZDiST3ZI14vxhJ-25" style="edgeStyle=orthogonalEdgeStyle;rounded=0;orthogonalLoop=1;jettySize=auto;html=1;exitX=0.5;exitY=1;exitDx=0;exitDy=0;entryX=0.5;entryY=0;entryDx=0;entryDy=0;labelBackgroundColor=none;fontColor=default;" parent="1" source="mNRcXlZDiST3ZI14vxhJ-15" target="qfDfbS4rxaPd7jS4ZdNi-8" edge="1">
          <mxGeometry relative="1" as="geometry" />
        </mxCell>
        <mxCell id="mNRcXlZDiST3ZI14vxhJ-101" style="edgeStyle=orthogonalEdgeStyle;rounded=0;orthogonalLoop=1;jettySize=auto;html=1;exitX=1;exitY=0.5;exitDx=0;exitDy=0;entryX=0.5;entryY=0;entryDx=0;entryDy=0;" parent="1" source="mNRcXlZDiST3ZI14vxhJ-15" target="mNRcXlZDiST3ZI14vxhJ-80" edge="1">
          <mxGeometry relative="1" as="geometry" />
        </mxCell>
        <mxCell id="mNRcXlZDiST3ZI14vxhJ-102" style="edgeStyle=orthogonalEdgeStyle;rounded=0;orthogonalLoop=1;jettySize=auto;html=1;exitX=0;exitY=0.5;exitDx=0;exitDy=0;entryX=1;entryY=0.5;entryDx=0;entryDy=0;" parent="1" source="mNRcXlZDiST3ZI14vxhJ-15" target="qfDfbS4rxaPd7jS4ZdNi-3" edge="1">
          <mxGeometry relative="1" as="geometry" />
        </mxCell>
        <mxCell id="mNRcXlZDiST3ZI14vxhJ-15" value="LCD" style="rounded=0;whiteSpace=wrap;html=1;labelBackgroundColor=none;" parent="1" vertex="1">
          <mxGeometry x="195" y="-175" width="170" height="70" as="geometry" />
        </mxCell>
        <mxCell id="mNRcXlZDiST3ZI14vxhJ-71" style="edgeStyle=orthogonalEdgeStyle;rounded=0;orthogonalLoop=1;jettySize=auto;html=1;exitX=0;exitY=0.5;exitDx=0;exitDy=0;entryX=0.5;entryY=0;entryDx=0;entryDy=0;" parent="1" source="mNRcXlZDiST3ZI14vxhJ-17" target="mNRcXlZDiST3ZI14vxhJ-69" edge="1">
          <mxGeometry relative="1" as="geometry" />
        </mxCell>
        <mxCell id="mNRcXlZDiST3ZI14vxhJ-72" style="edgeStyle=orthogonalEdgeStyle;rounded=0;orthogonalLoop=1;jettySize=auto;html=1;exitX=0.5;exitY=1;exitDx=0;exitDy=0;entryX=0.5;entryY=0;entryDx=0;entryDy=0;" parent="1" source="mNRcXlZDiST3ZI14vxhJ-17" target="mNRcXlZDiST3ZI14vxhJ-15" edge="1">
          <mxGeometry relative="1" as="geometry" />
        </mxCell>
        <mxCell id="mNRcXlZDiST3ZI14vxhJ-17" value="MAIN" style="rounded=0;whiteSpace=wrap;html=1;labelBackgroundColor=none;" parent="1" vertex="1">
          <mxGeometry x="120" y="-340" width="320" height="100" as="geometry" />
        </mxCell>
        <mxCell id="mNRcXlZDiST3ZI14vxhJ-18" value="Text/Images" style="rounded=0;whiteSpace=wrap;html=1;labelBackgroundColor=none;" parent="1" vertex="1">
          <mxGeometry x="216.25" y="70" width="127.5" height="70" as="geometry" />
        </mxCell>
        <mxCell id="mNRcXlZDiST3ZI14vxhJ-65" style="edgeStyle=orthogonalEdgeStyle;rounded=0;orthogonalLoop=1;jettySize=auto;html=1;exitX=0.5;exitY=1;exitDx=0;exitDy=0;entryX=0.5;entryY=0;entryDx=0;entryDy=0;" parent="1" source="mNRcXlZDiST3ZI14vxhJ-21" target="mNRcXlZDiST3ZI14vxhJ-64" edge="1">
          <mxGeometry relative="1" as="geometry" />
        </mxCell>
        <mxCell id="mNRcXlZDiST3ZI14vxhJ-21" value="Buttons" style="rounded=0;whiteSpace=wrap;html=1;labelBackgroundColor=none;" parent="1" vertex="1">
          <mxGeometry x="-730" y="-40" width="190" height="70" as="geometry" />
        </mxCell>
        <mxCell id="mNRcXlZDiST3ZI14vxhJ-64" value="GPIO Matrix" style="rounded=0;whiteSpace=wrap;html=1;" parent="1" vertex="1">
          <mxGeometry x="-730" y="90" width="190" height="70" as="geometry" />
        </mxCell>
        <mxCell id="mNRcXlZDiST3ZI14vxhJ-73" style="edgeStyle=orthogonalEdgeStyle;rounded=0;orthogonalLoop=1;jettySize=auto;html=1;exitX=0;exitY=0.5;exitDx=0;exitDy=0;entryX=0.5;entryY=0;entryDx=0;entryDy=0;" parent="1" source="mNRcXlZDiST3ZI14vxhJ-69" target="mNRcXlZDiST3ZI14vxhJ-21" edge="1">
          <mxGeometry relative="1" as="geometry" />
        </mxCell>
        <mxCell id="mNRcXlZDiST3ZI14vxhJ-74" style="edgeStyle=orthogonalEdgeStyle;rounded=0;orthogonalLoop=1;jettySize=auto;html=1;exitX=1;exitY=0.5;exitDx=0;exitDy=0;entryX=0.5;entryY=0;entryDx=0;entryDy=0;" parent="1" source="mNRcXlZDiST3ZI14vxhJ-69" target="qfDfbS4rxaPd7jS4ZdNi-1" edge="1">
          <mxGeometry relative="1" as="geometry" />
        </mxCell>
        <mxCell id="mNRcXlZDiST3ZI14vxhJ-75" style="edgeStyle=orthogonalEdgeStyle;rounded=0;orthogonalLoop=1;jettySize=auto;html=1;exitX=0;exitY=0.5;exitDx=0;exitDy=0;entryX=0.5;entryY=0;entryDx=0;entryDy=0;" parent="1" source="mNRcXlZDiST3ZI14vxhJ-69" target="qfDfbS4rxaPd7jS4ZdNi-5" edge="1">
          <mxGeometry relative="1" as="geometry" />
        </mxCell>
        <mxCell id="mNRcXlZDiST3ZI14vxhJ-83" style="edgeStyle=orthogonalEdgeStyle;rounded=0;orthogonalLoop=1;jettySize=auto;html=1;exitX=1;exitY=0.5;exitDx=0;exitDy=0;entryX=0.5;entryY=0;entryDx=0;entryDy=0;" parent="1" source="mNRcXlZDiST3ZI14vxhJ-69" target="mNRcXlZDiST3ZI14vxhJ-82" edge="1">
          <mxGeometry relative="1" as="geometry" />
        </mxCell>
        <mxCell id="mNRcXlZDiST3ZI14vxhJ-69" value="Command Parser" style="rounded=0;whiteSpace=wrap;html=1;" parent="1" vertex="1">
          <mxGeometry x="-600" y="-180" width="160" height="80" as="geometry" />
        </mxCell>
        <mxCell id="mNRcXlZDiST3ZI14vxhJ-80" value="Values On Stack" style="rounded=0;whiteSpace=wrap;html=1;" parent="1" vertex="1">
          <mxGeometry x="630" y="-42.5" width="130" height="75" as="geometry" />
        </mxCell>
        <mxCell id="mNRcXlZDiST3ZI14vxhJ-82" value="Alternative Functionality (e.g Traversing Stack)" style="rounded=0;whiteSpace=wrap;html=1;" parent="1" vertex="1">
          <mxGeometry x="-240" y="-40" width="150" height="75" as="geometry" />
        </mxCell>
        <mxCell id="mNRcXlZDiST3ZI14vxhJ-94" value="Memory" style="rounded=0;whiteSpace=wrap;html=1;" parent="1" vertex="1">
          <mxGeometry x="-225" y="270" width="120" height="60" as="geometry" />
        </mxCell>
        <mxCell id="mNRcXlZDiST3ZI14vxhJ-103" value="Values On Stack" style="rounded=0;whiteSpace=wrap;html=1;" parent="1" vertex="1">
          <mxGeometry x="-460" y="255" width="130" height="75" as="geometry" />
        </mxCell>
        <mxCell id="mNRcXlZDiST3ZI14vxhJ-105" value="" style="rounded=0;whiteSpace=wrap;html=1;fillColor=none;dashed=1;" parent="1" vertex="1">
          <mxGeometry x="30" y="-220" width="770" height="560" as="geometry" />
        </mxCell>
        <mxCell id="mNRcXlZDiST3ZI14vxhJ-106" value="&lt;font style=&quot;font-size: 24px;&quot;&gt;Implement&lt;/font&gt;" style="text;html=1;align=center;verticalAlign=middle;resizable=0;points=[];autosize=1;strokeColor=none;fillColor=none;" parent="1" vertex="1">
          <mxGeometry x="490" y="-267" width="140" height="40" as="geometry" />
        </mxCell>
      </root>
    </mxGraphModel>
  </diagram>
</mxfile>
